<svg xmlns="http://www.w3.org/2000/svg" width="53.524" height="45.342" viewBox="0 0 53.524 45.342"><path d="M448.42,910.812h-4v-41.7A1.213,1.213,0,0,0,443.2,867.9H418.463a1.213,1.213,0,0,0-1.213,1.213v11.514l-15.207,6.8a1.212,1.212,0,0,0-.718,1.107v22.283h-4a1.213,1.213,0,0,0,0,2.425h51.1a1.213,1.213,0,0,0,0-2.425Zm-44.669-21.5,13.5-6.037v27.534h-13.5Zm30.743,21.419h-2.585v-6.6h2.585Zm-5.011,0H426.9v-6.6h2.586Zm7.436.078V902.92a1.213,1.213,0,0,0-1.213-1.213H425.685a1.213,1.213,0,0,0-1.213,1.213v7.892h-4.8V870.321h22.316v40.491Z" transform="translate(-396.109 -867.896)" fill="#bfc2c3"/><path d="M416.684,894.439a1.213,1.213,0,0,0-1.213,1.213v16.533a1.213,1.213,0,0,0,2.425,0V895.652A1.213,1.213,0,0,0,416.684,894.439Z" transform="translate(-399.818 -872.981)" fill="#bfc2c3"/><path d="M410.565,896.861a1.213,1.213,0,0,0-1.213,1.213v14.575a1.213,1.213,0,0,0,2.425,0V898.074A1.213,1.213,0,0,0,410.565,896.861Z" transform="translate(-398.646 -873.445)" fill="#bfc2c3"/><rect width="2.425" height="4.643" transform="translate(27.231 7.847)" fill="#bfc2c3"/><rect width="2.425" height="4.643" transform="translate(33.322 7.847)" fill="#bfc2c3"/><rect width="2.425" height="4.643" transform="translate(39.413 7.847)" fill="#bfc2c3"/><rect width="2.425" height="4.644" transform="translate(27.231 16.313)" fill="#bfc2c3"/><rect width="2.425" height="4.644" transform="translate(33.322 16.313)" fill="#bfc2c3"/><rect width="2.425" height="4.644" transform="translate(39.413 16.313)" fill="#bfc2c3"/><rect width="2.425" height="4.643" transform="translate(27.231 24.59)" fill="#bfc2c3"/><rect width="2.425" height="4.643" transform="translate(33.322 24.59)" fill="#bfc2c3"/><rect width="2.425" height="4.643" transform="translate(39.413 24.59)" fill="#bfc2c3"/></svg>