<svg xmlns="http://www.w3.org/2000/svg" width="80.174" height="50.38" viewBox="0 0 80.174 50.38">
  <defs>
    <style>
      .cls-1 {
        fill: #bfc3c3;
      }
    </style>
  </defs>
  <path id="Path_4365" data-name="Path 4365" class="cls-1" d="M1287.578,1865.178c-2.657.387-3.893-.268-5.327-2.8a4.861,4.861,0,0,1-3.518-1.057,3.932,3.932,0,0,1-1.525-2.97c-.016-.525-.225-.678-.677-.832a4.22,4.22,0,0,1-2.233-6.456c.473-.746.947-1.492,1.4-2.2l-4.1-4.03-1.507,2.377a1.518,1.518,0,0,1-2.436.607c-3.123-1.781-2.823-1.722-5.942-3.508-.914-.523-1.189-1.277-.756-2.054s1.2-.942,2.132-.414c2.819,1.594,2.213,1.352,5.125,3.006,1-1.58,1.978-3.141,2.963-4.7q6.567-10.389,13.136-20.776c.607-.959,1.357-1.208,2.129-.732.752.462.853,1.294.264,2.236-.875,1.4-1.753,2.791-2.7,4.29,1.663.7,3.029,2.02,4.994,1.75a3.137,3.137,0,0,1,.8,0,3.029,3.029,0,0,0,2.792-1.042,6.055,6.055,0,0,1,4.485-1.792q4.653-.049,9.305.011a8.853,8.853,0,0,1,2.168.375c2.107.573,4.2,1.193,6.3,1.792,2.048.585,2.048.583,4.047-.573-.439-.715-.874-1.432-1.319-2.143-.563-.9-1.139-1.792-1.7-2.691-.577-.921-.457-1.78.3-2.229s1.508-.2,2.072.7q7.861,12.447,15.721,24.894c.124.2.271.379.453.628,1.988-1.133-.383.283,1.581-.838.87-.5,1.734-1,2.609-1.49a1.427,1.427,0,1,1,1.407,2.454c-3.19,1.839-2.049,1.134-5.251,2.952a1.435,1.435,0,0,1-2.175-.581c-.885-1.379-1.754-2.767-2.7-4.26l-4.4,5.49a5.433,5.433,0,0,1,1.173,3.79,5.208,5.208,0,0,1-4.437,4.616,1.9,1.9,0,0,0-1.126.64,8.476,8.476,0,0,1-3.214,2.941c-.494.226-.8.905-1.14,1.415-1.042,1.58-2.305,3.02-4.278,3.093a4.12,4.12,0,0,0-3.443,1.963,4.389,4.389,0,0,1-5.337,1.4c-2.52-.913-5.022-1.88-7.52-2.853-.536-.209-.831-.213-1.218.337a4.211,4.211,0,0,1-6.928-.043C1287.88,1865.651,1287.742,1865.428,1287.578,1865.178Zm31.075-9.155c-.12-.076-.24-.156-.363-.23q-5.189-3.124-10.374-6.253a2.157,2.157,0,0,1-.76-.7,1.276,1.276,0,0,1,.274-1.686,1.473,1.473,0,0,1,1.942-.048q5.486,3.313,10.99,6.6a2.156,2.156,0,0,0,3.151-.666,2.081,2.081,0,0,0-.779-3.034q-10.622-7.094-21.261-14.162a3.352,3.352,0,0,0-1.223-.414,3.031,3.031,0,0,0-3.718,1.884,3.357,3.357,0,0,1-.558.794,4.142,4.142,0,0,1-3.237,1.56c-2.245.015-4.49,0-6.736.01a1.537,1.537,0,0,1-1.559-.775,1.582,1.582,0,0,1,.258-1.73q2.243-3.338,4.46-6.694c.138-.207.247-.433.3-.524a26.1,26.1,0,0,1-3.6-.7,28.564,28.564,0,0,1-3.4-1.647l-9.146,14.484,4.251,4.215c2.04-1.538,3.915-1.383,6.128.588a4.254,4.254,0,0,1,5.529-.927c1.719.946,2.353,2.571,2,4.977a4.283,4.283,0,0,1,3.212,3.576.928.928,0,0,0,.794.933,4.178,4.178,0,0,1,2.568,6.009c-.232.458-.5.9-.772,1.4,2.382.914,4.691,1.794,6.995,2.688,1.856.72,2.817.314,3.6-1.57q-2.636-1.513-5.281-3.031c-1.006-.576-1.316-1.369-.839-2.16.441-.732,1.28-.844,2.246-.293,2.021,1.152,4.038,2.313,6.063,3.461a2.893,2.893,0,0,0,4.183-1.182l-4.585-2.838c-1.553-.962-3.117-1.907-4.654-2.894a1.415,1.415,0,0,1,1.4-2.451,4.694,4.694,0,0,1,.614.346q3.484,2.183,6.967,4.369C1315.858,1858.629,1317.366,1858.243,1318.653,1856.023Zm-30.307-19.185c1.238,0,2.278-.076,3.3.019a2.566,2.566,0,0,0,2.8-1.5,4.356,4.356,0,0,1,2.558-2.445c2.091-.56,4.191-.7,6.121.583q7.577,5.046,15.146,10.1c1.635,1.09,3.272,2.176,4.953,3.294,1.57-1.97,3.069-3.891,4.621-5.768a.855.855,0,0,0,.082-1.215c-1.69-2.626-3.341-5.278-5.009-7.918-.812-1.285-1.632-2.564-2.447-3.844-.4.2-.7.317-.974.487a5.74,5.74,0,0,1-5.165.461c-2.235-.746-4.526-1.328-6.8-1.96a5.391,5.391,0,0,0-1.39-.218c-2.954-.019-5.907-.011-8.861-.009a3.8,3.8,0,0,0-3.253,1.509C1292.115,1831.131,1290.306,1833.919,1288.346,1836.839Zm-6.8,22.934a6.576,6.576,0,0,0,1.258-1.066c1.8-2.662,3.552-5.355,5.316-8.04.635-.967.545-1.651-.277-2.22-.758-.525-1.529-.309-2.146.635-1.066,1.628-2.1,3.273-3.175,4.9-.728,1.106-1.545,2.158-2.2,3.3a1.8,1.8,0,0,0-.046,1.456C1280.465,1859.143,1281.025,1859.372,1281.546,1859.773Zm4.872,2.9a6.422,6.422,0,0,0,1.19-.972c.572-.781,1.033-1.642,1.566-2.452.711-1.079,1.468-2.127,2.167-3.213a1.43,1.43,0,0,0-.345-2.094,1.357,1.357,0,0,0-2.009.585c-.211.319-.417.642-.627.962-1.034,1.573-2.113,3.121-3.073,4.738a2,2,0,0,0-.088,1.546C1285.342,1862.134,1285.924,1862.327,1286.418,1862.671Zm7.344-4.553a2.891,2.891,0,0,0-.777.628c-.885,1.282-1.721,2.6-2.558,3.914a1.3,1.3,0,0,0,.287,1.935,1.35,1.35,0,0,0,1.949-.337c.91-1.336,1.8-2.691,2.618-4.082C1295.828,1859.247,1295.1,1858.1,1293.763,1858.117Zm-13.558-9.984a7.486,7.486,0,0,0-.7.279.881.881,0,0,0-.313.307c-.88,1.355-1.781,2.7-2.615,4.08a1.317,1.317,0,0,0,.443,1.857,1.174,1.174,0,0,0,1.723-.234c.956-1.376,1.888-2.771,2.761-4.2A1.383,1.383,0,0,0,1280.205,1848.133Z" transform="translate(-1260.756 -1818.402)"/>
</svg>
