<svg xmlns="http://www.w3.org/2000/svg" width="89.895" height="68.323" viewBox="0 0 89.895 68.323">
  <defs>
    <style>
      .cls-1 {
        fill: none;
        stroke: #bfc2c3;
        stroke-linecap: round;
        stroke-linejoin: round;
        stroke-width: 3.25px;
      }

      .cls-2 {
        fill: #fff;
      }
    </style>
  </defs>
  <g id="Group_6440" data-name="Group 6440" transform="translate(-964.229 -456.956)">
    <g id="Group_6435" data-name="Group 6435">
      <path id="Path_4368" data-name="Path 4368" class="cls-1" d="M966.078,504.446,966.6,501a5.274,5.274,0,0,1,3.31-4.471c2.991-1.2,9.6-2.8,9.6-6.511"/>
      <path id="Path_4369" data-name="Path 4369" class="cls-1" d="M1004.453,507.446l-.52-6.448a5.274,5.274,0,0,0-3.31-4.471c-2.991-1.2-9.6-2.8-9.6-6.511"/>
    </g>
    <ellipse id="Ellipse_582" data-name="Ellipse 582" class="cls-1" cx="8.847" cy="11.612" rx="8.847" ry="11.612" transform="translate(976.418 468.967)"/>
    <g id="Group_6436" data-name="Group 6436">
      <path id="Path_4370" data-name="Path 4370" class="cls-1" d="M1013.9,507.446l.52-6.448a5.275,5.275,0,0,1,3.31-4.471c2.99-1.2,9.6-2.8,9.6-6.511"/>
      <path id="Path_4371" data-name="Path 4371" class="cls-1" d="M1052.275,504.446l-.52-3.448a5.278,5.278,0,0,0-3.31-4.471c-2.991-1.2-9.6-2.8-9.6-6.511"/>
    </g>
    <path id="Path_4376" data-name="Path 4376" class="cls-2" d="M21.93,0c12.111,0,21.93,5.706,21.93,12.745S34.041,25.489,21.93,25.489,0,19.783,0,12.745,9.818,0,21.93,0Z" transform="translate(987.381 491.006)"/>
    <ellipse id="Ellipse_584" data-name="Ellipse 584" class="cls-1" cx="8.847" cy="11.612" rx="8.847" ry="11.612" transform="translate(1024.24 468.967)"/>
    <ellipse id="Ellipse_585" data-name="Ellipse 585" class="cls-1" cx="10.723" cy="14.074" rx="10.723" ry="14.074" transform="translate(998.453 458.581)"/>
    <g id="Group_6437" data-name="Group 6437">
      <path id="Path_4372" data-name="Path 4372" class="cls-1" d="M1013.186,491.345l-1.882,5.012a2.321,2.321,0,0,1-2.2,1.435h-.016a2.307,2.307,0,0,1-2.236-1.536l-1.551-4.911"/>
      <path id="Path_4373" data-name="Path 4373" class="cls-1" d="M1007.495,497.792l-2.539,21.582,4.508,4.279,4.068-4.268-2.5-21.593"/>
    </g>
    <g id="Group_6438" data-name="Group 6438">
      <path id="Path_4374" data-name="Path 4374" class="cls-1" d="M985.228,509.644l.63-7.816a6.4,6.4,0,0,1,4.012-5.419c3.625-1.45,12.049-5.064,13.541-11.893"/>
    </g>
    <g id="Group_6439" data-name="Group 6439">
      <path id="Path_4375" data-name="Path 4375" class="cls-1" d="M1033.384,509.644l-.631-7.816a6.394,6.394,0,0,0-4.012-5.419c-3.625-1.45-12.048-5.064-13.541-11.893"/>
    </g>
  </g>
</svg>
